<svg width="640" height="400" viewBox="0 0 640 400" fill="none" xmlns="http://www.w3.org/2000/svg">
  <defs>
    <linearGradient id="bg3" x1="0" y1="0" x2="640" y2="400" gradientUnits="userSpaceOnUse">
      <stop stop-color="#080C18" />
      <stop offset="1" stop-color="#141C32" />
    </linearGradient>
  </defs>
  <rect width="640" height="400" rx="32" fill="url(#bg3)"/>
  <rect x="90" y="90" width="460" height="220" rx="24" stroke="#2DA3FF" stroke-width="3" stroke-dasharray="8 10" opacity="0.7"/>
  <circle cx="180" cy="200" r="36" fill="#2DA3FF" opacity="0.2"/>
  <circle cx="180" cy="200" r="24" stroke="#2DA3FF" stroke-width="4" fill="none"/>
  <circle cx="320" cy="200" r="36" fill="#8B5CF6" opacity="0.2"/>
  <circle cx="320" cy="200" r="24" stroke="#8B5CF6" stroke-width="4" fill="none"/>
  <circle cx="460" cy="200" r="36" fill="#2DA3FF" opacity="0.2"/>
  <circle cx="460" cy="200" r="24" stroke="#2DA3FF" stroke-width="4" fill="none"/>
  <path d="M216 200H284" stroke="#2DA3FF" stroke-width="6" stroke-linecap="round" stroke-dasharray="10 8"/>
  <path d="M356 200H424" stroke="#8B5CF6" stroke-width="6" stroke-linecap="round" stroke-dasharray="10 8"/>
  <rect x="120" y="270" width="80" height="20" rx="10" fill="#2DA3FF" opacity="0.8"/>
  <rect x="230" y="270" width="80" height="20" rx="10" fill="#8B5CF6" opacity="0.8"/>
  <rect x="340" y="270" width="80" height="20" rx="10" fill="#2DA3FF" opacity="0.6"/>
  <rect x="450" y="270" width="80" height="20" rx="10" fill="#8B5CF6" opacity="0.6"/>
  <text x="100" y="70" fill="#E2E8F0" font-family="Space Grotesk, sans-serif" font-size="26" font-weight="600">GitOps deployment flow</text>
</svg>

